<svg width="480" height="480" xmlns="http://www.w3.org/2000/svg" xmlns:svg="http://www.w3.org/2000/svg">
 <!-- Created with SVG-edit - http://svg-edit.googlecode.com/ -->
 <g>
  <title>Layer 1</title>
  <path fill="#e5e5e5" stroke="#000000" stroke-width="0" stroke-dasharray="null" stroke-linejoin="null" stroke-linecap="null" d="m18.66667,25.33333c-2.66667,40 0,78.66667 -1.33334,77.33334c-1.33333,-1.33334 2.66667,45.33333 1.33334,45.33333c-1.33334,0 -8,52 -9.33334,50.66667c-1.33333,-1.33334 8,38.66666 6.66667,37.33333c-1.33333,-1.33333 8,34.66667 6.66667,33.33333c-1.33333,-1.33333 8,25.33333 6.66667,24c-1.33334,-1.33333 -6.66667,24 -6.66667,24c0,0 -8,18.66667 -8,18.66667c0,0 1.33333,24 1.33333,24c0,0 -1.33333,24 -1.33333,25.33333c0,1.33333 14.66667,29.33333 13.33333,28c-1.33333,-1.33333 -2.66667,24 -2.66667,24c0,0 -14.66666,16 -14.66666,16c0,0 4,12 2.66666,10.66667c-1.33333,-1.33333 44,1.33333 42.66667,0c-1.33333,-1.33333 53.33333,2.66667 53.33333,2.66667c0,0 52,0 50.66667,-1.33334c-1.33333,-1.33333 42.66667,-5.33333 42.66667,-5.33333c0,0 50.66666,2.66667 49.33333,2.66667c-1.33333,0 41.33333,5.33333 40,4c-1.33333,-1.33334 18.66667,-10.66667 17.33333,-12c-1.33333,-1.33334 32,4 30.66667,2.66666c-1.33333,-1.33333 25.33333,10.66667 24,9.33334c-1.33333,-1.33334 45.33333,2.66666 45.33333,2.66666c0,0 34.66667,-4 33.33334,-5.33333c-1.33334,-1.33333 20,-1.33333 20,-1.33333c0,0 -8,-26.66667 -9.33334,-28c-1.33333,-1.33333 5.33334,-38.66667 4,-40c-1.33333,-1.33333 6.66667,-37.33333 5.33334,-38.66667c-1.33334,-1.33333 0,-26.66667 -1.33334,-26.66667c-1.33333,0 2.66667,-24 1.33334,-25.33333c-1.33334,-1.33333 -8,-41.33333 -8,-42.66667c0,-1.33333 8,-20 8,-20c0,0 0,-37.33333 -1.33334,-38.66666c-1.33333,-1.33334 1.33334,-34.66667 0,-36c-1.33333,-1.33334 0,-34.66667 -1.33333,-36c-1.33333,-1.33334 6.66667,-36 5.33333,-37.33334c-1.33333,-1.33333 -2.66666,-37.33333 -2.66666,-37.33333c0,0 0,-30.66667 -1.33334,-32c-1.33333,-1.33333 -30.66666,-8 -32,-9.33333c-1.33333,-1.33333 -37.33333,8 -37.33333,8c0,0 -37.33333,1.33333 -37.33333,1.33333c0,0 -20,-9.33333 -20,-9.33333c0,0 -50.66667,1.33333 -50.66667,1.33333c0,0 -33.33333,6.66667 -33.33333,6.66667c0,0 -29.33334,-5.33333 -30.66667,-5.33333c-1.33333,0 -45.33333,-1.33334 -45.33333,-1.33334c0,0 -37.33334,-1.33333 -38.66667,-1.33333c-1.33333,0 -44,-4 -45.33333,-5.33333c-1.33334,-1.33334 -38.66667,5.33333 -40,4c-1.33334,-1.33334 -32,12 -32,12l0,-0.00001z" id="svg_20"/>
  <text fill="#000000" stroke-width="0" x="166.71573" y="57.792" id="svg_1" font-size="24" font-family="Fantasy" text-anchor="middle" xml:space="preserve" font-weight="normal" stroke="#000000" transform="matrix(3.387934923171997,0,0,3.387934923171997,-150.68312621262976,-104.87666730120964) ">2</text>
  <text fill="#000000" stroke-width="0" x="118.90672" y="58.08716" font-size="24" font-family="Fantasy" text-anchor="middle" xml:space="preserve" font-weight="normal" stroke="#000000" id="svg_2" transform="matrix(3.387934923171997,0,0,3.387934923171997,-150.68312621262976,-104.87666730120964) ">9</text>
  <text fill="#000000" stroke-width="0" x="67.95264" y="58.77588" font-size="24" font-family="Fantasy" text-anchor="middle" xml:space="preserve" font-weight="normal" stroke="#000000" id="svg_3" transform="matrix(3.387934923171997,0,0,3.387934923171997,-150.68312621262976,-104.87666730120964) ">4</text>
  <text fill="#000000" stroke-width="0" x="164.47019" y="110.74888" font-size="24" font-family="Fantasy" text-anchor="middle" xml:space="preserve" font-weight="normal" stroke="#000000" transform="matrix(3.387934923171997,0,0,3.387934923171997,-150.68312621262976,-104.87666730120964) " id="svg_4">7</text>
  <text fill="#000000" stroke-width="0" x="116.66119" y="111.04405" font-size="24" font-family="Fantasy" text-anchor="middle" xml:space="preserve" font-weight="normal" stroke="#000000" transform="matrix(3.387934923171997,0,0,3.387934923171997,-150.68312621262976,-104.87666730120964) " id="svg_5">5</text>
  <text fill="#000000" stroke-width="0" x="65.7071" y="111.04405" font-size="24" font-family="Fantasy" text-anchor="middle" xml:space="preserve" font-weight="normal" stroke="#000000" transform="matrix(3.387934923171997,0,0,3.387934923171997,-150.68312621262976,-104.87666730120964) " id="svg_6">3</text>
  <text fill="#000000" stroke-width="0" x="164.47019" y="161.81244" font-size="24" font-family="Fantasy" text-anchor="middle" xml:space="preserve" font-weight="normal" stroke="#000000" transform="matrix(3.387934923171997,0,0,3.387934923171997,-150.68312621262976,-104.87666730120964) " id="svg_7">6</text>
  <text fill="#000000" stroke-width="0" x="116.66119" y="162.1076" font-size="24" font-family="Fantasy" text-anchor="middle" xml:space="preserve" font-weight="normal" stroke="#000000" transform="matrix(3.387934923171997,0,0,3.387934923171997,-150.68312621262976,-104.87666730120964) " id="svg_8">1</text>
  <text fill="#000000" stroke-width="0" x="65.7071" y="162.10761" font-size="24" font-family="Fantasy" text-anchor="middle" xml:space="preserve" font-weight="normal" stroke="#000000" transform="matrix(3.387934923171997,0,0,3.387934923171997,-150.68312621262976,-104.87666730120964) " id="svg_9">8</text>
  <line fill="none" stroke="#000000" stroke-width="5" x1="114" y1="62.33333" x2="210.00521" y2="62.33333" id="svg_10"/>
  <line fill="none" stroke="#000000" stroke-width="5" x1="203.33074" y1="162.83333" x2="299.33595" y2="162.83333" id="svg_11" transform="rotate(90 251.33328247070312,162.83335876464847) "/>
  <line fill="none" stroke="#000000" stroke-width="5" x1="111.99741" y1="242.83333" x2="208.00261" y2="242.83333" id="svg_13"/>
  <line fill="none" stroke="#000000" stroke-width="5" x1="276.99741" y1="239.83333" x2="373.00261" y2="239.83333" id="svg_14"/>
  <line fill="none" stroke="#000000" stroke-width="5" x1="270.99741" y1="417.83333" x2="367.00261" y2="417.83333" id="svg_16"/>
  <line fill="none" stroke="#000000" stroke-width="5" x1="20.99739" y1="333.83333" x2="117.0026" y2="333.83333" transform="rotate(90 68.99999999999996,333.8332824707032) " id="svg_17"/>
  <line fill="none" stroke="#000000" stroke-width="5" x1="199.33072" y1="334.83333" x2="295.33593" y2="334.83333" transform="rotate(90 247.3332824707031,334.8332824707032) " id="svg_18"/>
  <line fill="none" stroke="#000000" stroke-width="5" x1="366.99739" y1="157.83333" x2="463.0026" y2="157.83333" transform="rotate(90 415,157.8333587646485) " id="svg_19"/>
 </g>
</svg>